<?xml version="1.0" encoding="UTF-8"?>
<svg id="Calque_1" data-name="Calque 1" xmlns="http://www.w3.org/2000/svg" viewBox="0 0 941.08 1076.42">
  <defs>
    <style>
      .cls-1 {
        fill: none;
      }

      .cls-2 {
        fill: #efae00;
      }

      .cls-3 {
        fill: #9b2b7c;
      }

      .cls-4 {
        fill: #cd1517;
      }

      .cls-5 {
        fill: #c61261;
      }

      .cls-6 {
        fill: #d54a15;
      }

      .cls-7 {
        fill: #706f6f;
      }

      .cls-8 {
        fill: #54256b;
      }

      .cls-9 {
        fill: #99b91f;
      }

      .cls-10 {
        fill: #2a9086;
      }

      .cls-11 {
        fill: #268035;
      }
    </style>
  </defs>
  <g>
    <rect class="cls-4" x="365.49" y="234.32" width="210.11" height="210.11" rx="12" ry="12" transform="translate(-102.16 432.13) rotate(-45)"/>
    <path class="cls-1" d="M618.16,370.63c8.59-8.59,19.92-12.89,31.25-12.89v116.32c0,24.31-19.89,44.19-44.19,44.19h-116.32c0-11.33,4.3-22.66,12.89-31.25l116.37-116.37Z"/>
    <path class="cls-1" d="M501.79,191.76c-8.59-8.59-12.89-19.92-12.89-31.25h116.32c24.31,0,44.19,19.89,44.19,44.19v116.32c-11.33,0-22.66-4.3-31.25-12.89l-116.37-116.37Z"/>
    <path class="cls-1" d="M439.29,487c8.59,8.59,12.89,19.92,12.89,31.25h-116.32c-24.31,0-44.19-19.89-44.19-44.19v-116.32c11.33,0,22.66,4.3,31.25,12.89l116.37,116.37Z"/>
    <path class="cls-1" d="M335.87,160.51h116.32c0,11.33-4.3,22.66-12.89,31.25l-116.37,116.37c-8.59,8.59-19.92,12.89-31.25,12.89v-116.32c0-24.31,19.89-44.19,44.19-44.19Z"/>
    <g>
      <path class="cls-11" d="M649.41,474.05v-116.32c11.33,0,22.66,4.3,31.25,12.89l116.37,116.37c17.19,17.19,17.19,45.31,0,62.5l-116.37,116.37c-17.19,17.19-45.31,17.19-62.5,0l-116.37-116.37c-8.59-8.59-12.89-19.92-12.89-31.25h116.32c24.31,0,44.19-19.89,44.19-44.19Z"/>
      <path class="cls-6" d="M439.29,129.26c8.59,8.59,12.89,19.92,12.89,31.25h-116.32c-24.31,0-44.19,19.89-44.19,44.19v116.32c-11.33,0-22.66-4.3-31.25-12.89l-116.37-116.37c-17.19-17.19-17.19-45.31,0-62.5L260.43,12.89c17.19-17.19,45.31-17.19,62.5,0l116.37,116.37Z"/>
      <path class="cls-5" d="M605.22,160.51h-116.32c0-11.33,4.3-22.66,12.89-31.25L618.16,12.89c17.19-17.19,45.31-17.19,62.5,0l116.37,116.37c17.19,17.19,17.19,45.31,0,62.5l-116.37,116.37c-8.59,8.59-19.92,12.89-31.25,12.89v-116.32c0-24.31-19.89-44.19-44.19-44.19Z"/>
      <path class="cls-8" d="M335.87,518.25h116.32c0,11.33-4.3,22.66-12.89,31.25l-116.37,116.37c-17.19,17.19-45.31,17.19-62.5,0l-116.37-116.37c-17.19-17.19-17.19-45.31,0-62.5l116.37-116.37c8.59-8.59,19.92-12.89,31.25-12.89v116.32c0,24.31,19.89,44.19,44.19,44.19Z"/>
    </g>
    <g>
      <path class="cls-3" d="M439.29,487c8.59,8.59,12.89,19.92,12.89,31.25h-116.32c-24.31,0-44.19-19.89-44.19-44.19v-116.32c11.33,0,22.66,4.3,31.25,12.89l116.37,116.37Z"/>
      <path class="cls-9" d="M501.79,487l116.37-116.37c8.59-8.59,19.92-12.89,31.25-12.89v116.32c0,24.31-19.89,44.19-44.19,44.19h-116.32c0-11.33,4.3-22.66,12.89-31.25Z"/>
      <path class="cls-2" d="M322.92,308.13c-8.59,8.59-19.92,12.89-31.25,12.89v-116.32c0-24.31,19.89-44.19,44.19-44.19h116.32c0,11.33-4.3,22.66-12.89,31.25l-116.37,116.37Z"/>
      <path class="cls-10" d="M649.41,204.7v116.32c-11.33,0-22.66-4.3-31.25-12.89l-116.37-116.37c-8.59-8.59-12.89-19.92-12.89-31.25h116.32c24.31,0,44.19,19.89,44.19,44.19Z"/>
    </g>
  </g>
  <g>
    <path class="cls-7" d="M198.16,909.24c0,9.68-2.1,18.88-6.29,27.59s-10.06,16.41-17.59,23.08c-7.53,6.67-16.46,12-26.79,15.97-10.33,3.98-21.73,5.97-34.21,5.97-11.19,0-21.25-.65-30.18-1.94-8.93-1.29-17.32-3.33-25.17-6.13-7.86-2.79-15.38-6.4-22.59-10.81-7.21-4.41-14.68-9.73-22.43-15.98l35.5-35.82c10.33,8.61,20.44,14.68,30.34,18.23,9.89,3.55,20.66,5.33,32.27,5.33,4.73,0,9.2-.7,13.39-2.1,4.2-1.4,7.85-3.28,10.97-5.65,3.12-2.37,5.59-5.16,7.42-8.39,1.83-3.23,2.74-6.78,2.74-10.65,0-4.08-.76-7.75-2.26-10.97-1.51-3.23-4.2-6.34-8.07-9.36-3.87-3.01-9.25-6.08-16.14-9.2-6.89-3.12-15.71-6.62-26.46-10.49-9.47-3.44-18.56-7.37-27.27-11.78-8.71-4.41-16.35-9.73-22.91-15.97-6.57-6.24-11.83-13.56-15.81-21.95-3.98-8.39-5.97-18.29-5.97-29.69s2.2-21.08,6.62-30.34c4.41-9.25,10.43-17.16,18.07-23.72,7.63-6.56,16.56-11.67,26.79-15.33,10.22-3.66,21.24-5.49,33.08-5.49,19.79,0,36.47,2.58,50.02,7.75s25.6,12.7,36.15,22.59l-34.86,35.18c-6.46-6.24-13.67-11.02-21.62-14.36-7.96-3.33-17.32-5-28.08-5-4.95,0-9.52,.76-13.72,2.26-4.2,1.51-7.8,3.5-10.81,5.97-3.02,2.48-5.44,5.38-7.26,8.71-1.83,3.34-2.74,6.83-2.74,10.49,0,4.09,.86,7.8,2.58,11.13,1.72,3.34,4.62,6.57,8.71,9.68,4.08,3.12,9.52,6.24,16.3,9.36,6.78,3.12,15.22,6.51,25.34,10.17,12.91,4.52,23.99,9.47,33.24,14.85,9.25,5.38,16.78,11.3,22.59,17.75,5.81,6.46,10.11,13.72,12.91,21.79,2.79,8.07,4.2,17.16,4.2,27.27Z"/>
    <path class="cls-7" d="M469.58,930.54c-12.91,15.71-28.56,28.19-46.96,37.44-18.4,9.25-38.68,13.88-60.83,13.88-19.15,0-37.11-3.5-53.9-10.49s-31.39-16.51-43.8-28.56c-12.42-12.05-22.21-26.19-29.37-42.44-7.16-16.24-10.74-33.73-10.74-52.44s3.58-36.2,10.74-52.44c7.16-16.24,16.95-30.44,29.37-42.6,12.42-12.15,27.02-21.67,43.8-28.56,16.78-6.88,34.74-10.33,53.9-10.33,22.16,0,42.44,4.63,60.83,13.88,18.4,9.25,33.73,21.3,45.99,36.15l-34.53,35.5c-7.96-11.4-18.23-20.6-30.82-27.59-12.59-6.99-26.41-10.49-41.47-10.49-12.05,0-23.4,2.31-34.05,6.94-10.65,4.63-19.96,10.87-27.92,18.72-7.96,7.86-14.26,17-18.88,27.43-4.63,10.44-6.94,21.57-6.94,33.4s2.31,22.65,6.94,33.08c4.62,10.44,10.92,19.58,18.88,27.43,7.96,7.86,17.27,14.09,27.92,18.72,10.65,4.63,22,6.94,34.05,6.94,15.92,0,30.01-3.6,42.28-10.81,12.26-7.21,22.48-16.73,30.66-28.56l34.86,35.82Z"/>
    <path class="cls-7" d="M672.9,763.69h-71.32v213.33h-50.67v-213.33h-71.32v-44.54h193.32v44.54Z"/>
    <path class="cls-7" d="M928.18,929.57c-7.32,9.04-15.28,16.84-23.88,23.4-8.61,6.57-17.59,12-26.95,16.3-9.36,4.31-18.94,7.48-28.72,9.52-9.79,2.04-19.53,3.07-29.21,3.07-19.15,0-37.11-3.44-53.9-10.33-16.78-6.88-31.42-16.35-43.89-28.4-12.48-12.05-22.38-26.25-29.69-42.6-7.32-16.35-10.97-33.99-10.97-52.93s3.6-35.87,10.81-52.12c7.21-16.24,17.1-30.39,29.69-42.44,12.59-12.05,27.27-21.57,44.05-28.56,16.78-6.99,34.74-10.49,53.9-10.49,22.16,0,42.33,4.52,60.51,13.55,18.18,9.04,33.61,21.09,46.31,36.15l-33.83,34.53c-9.67-13.12-20.51-22.54-32.54-28.24-12.03-5.7-25.46-8.55-40.28-8.55-12.24,0-23.74,2.26-34.48,6.78-10.74,4.52-20.14,10.71-28.19,18.56-8.06,7.86-14.39,17-19.01,27.43-4.62,10.44-6.92,21.57-6.92,33.4s2.3,23.29,6.92,33.73c4.61,10.44,10.95,19.64,19,27.59,8.05,7.96,17.44,14.2,28.18,18.72,10.73,4.52,22.22,6.78,34.46,6.78,11.59,0,22.54-2.15,32.85-6.46,10.3-4.3,19.54-10,27.69-17.1v-24.85h-52.93v-42.6h101.02v86.17Z"/>
  </g>
</svg>